Coordinates
version=1
nRows=12
nColumns=24
inDegrees=yes

Units are S.I. units (second, meters, Newtons, ...)
Angles are in degrees.

endheader
time	pelvis_tilt	pelvis_list	pelvis_rotation	pelvis_tx	pelvis_ty	pelvis_tz	hip_flexion_r	hip_adduction_r	hip_rotation_r	knee_angle_r	ankle_angle_r	subtalar_angle_r	mtp_angle_r	hip_flexion_l	hip_adduction_l	hip_rotation_l	knee_angle_l	ankle_angle_l	subtalar_angle_l	mtp_angle_l	lumbar_extension	lumbar_bending	lumbar_rotation
      7.00500000	     -8.70983838	     -5.50404769	      5.43506596	     -1.39489623	      0.00119686	     -0.25539781	     11.89826349	      9.68475774	      2.02532620	    -10.65438527	      0.59693987	     -1.59602720	     13.02218357	     25.73031141	     -8.39763849	     -1.05854985	    -62.04983568	    -13.10695720	     -7.52512236	     21.06629666	     10.17610013	      4.78422814	     -0.56505423
      7.01000000	     -8.70289393	     -5.29364268	      5.11880335	     -1.39030711	      0.00153253	     -0.25474616	     11.37775611	      9.57022769	      2.29147790	    -10.34540261	      0.77396732	     -1.39727545	     13.10647519	     26.22154556	     -8.21266562	     -1.40383281	    -61.61723546	    -12.52168109	     -7.47465895	     21.22775636	     10.03570321	      4.63124559	     -0.08723753
      7.01500000	     -8.69155920	     -5.09291313	      4.81334243	     -1.38574081	      0.00182443	     -0.25413100	     10.85387917	      9.45647644	      2.53497197	    -10.02716816	      0.94218352	     -1.20145121	     13.21837107	     26.69886950	     -8.03189153	     -1.73277639	    -61.12627412	    -11.95984467	     -7.42276857	     21.37686548	      9.89396928	      4.48779174	      0.37574493
      7.02000000	     -8.68544221	     -4.90506253	      4.52836690	     -1.38120287	      0.00207365	     -0.25355017	     10.33940244	      9.34563978	      2.75996194	     -9.70299776	      1.08152057	     -1.00896295	     13.33979098	     27.17455437	     -7.84786476	     -2.02158109	    -60.57590943	    -11.42588126	     -7.37879635	     21.50851400	      9.75940248	      4.34576688	      0.80861182
      7.02500000	     -8.66113679	     -4.72492056	      4.23347891	     -1.37666877	      0.00226058	     -0.25300667	      9.80858056	      9.24139928	      2.97499205	     -9.37901107	      1.25086385	     -0.84851739	     13.49763371	     27.61687902	     -7.68399663	     -2.33219145	    -59.97738896	    -10.91169924	     -7.32960994	     21.61948985	      9.60942445	      4.23010850	      1.25622620
      7.03000000	     -8.63780466	     -4.55829695	      3.95971024	     -1.37215081	      0.00240188	     -0.25250538	      9.28513289	      9.14251819	      3.17979759	     -9.05770970	      1.39136800	     -0.71087328	     13.65760373	     28.05142072	     -7.51731253	     -2.60193706	    -59.32335574	    -10.42379923	     -7.29724349	     21.69850306	      9.46254498	      4.11879494	      1.67280685
      7.03500000	     -8.61071240	     -4.40013134	      3.68505494	     -1.36765132	      0.00249943	     -0.25202776	      8.76573239	      9.04905879	      3.39035473	     -8.74482523	      1.52265562	     -0.59748417	     13.82350614	     28.46558181	     -7.35675642	     -2.85824308	    -58.61219393	     -9.95438770	     -7.26771726	     21.74674852	      9.31519346	      4.01999427	      2.08720381
      7.04000000	     -8.58566254	     -4.25235887	      3.41560996	     -1.36315830	      0.00254460	     -0.25158855	      8.25738876	      8.96121472	      3.60300711	     -8.44438382	      1.64749645	     -0.51470942	     13.98003663	     28.86774306	     -7.19898667	     -3.09018959	    -57.84901686	     -9.50928529	     -7.24318435	     21.76169228	      9.17264826	      3.93057436	      2.49063805
      7.04500000	     -8.51083810	     -4.12944771	      3.12105413	     -1.35868192	      0.00259323	     -0.25114300	      7.70102794	      8.90348368	      3.85837923	     -8.14738741	      1.71713678	     -0.46928325	     14.17996910	     29.19581572	     -7.08722696	     -3.34325022	    -57.03664466	     -9.05875089	     -7.23418727	     21.67669896	      8.97256122	      3.87473615	      2.92085269
      7.05000000	     -8.49250278	     -3.99371677	      2.84895919	     -1.35420026	      0.00253493	     -0.25075807	      7.22609655	      8.82202873	      4.09747478	     -7.89311668	      1.83574786	     -0.46419768	     14.32768092	     29.56691326	     -6.93566975	     -3.54698378	    -56.16523430	     -8.62604902	     -7.20302854	     21.60208182	      8.84233936	      3.80192286	      3.30112001
      7.05500000	     -8.45445705	     -3.87389983	      2.56361355	     -1.34971066	      0.00246226	     -0.25036233	      6.73076068	      8.75794200	      4.37155924	     -7.64013223	      1.93687331	     -0.47964361	     14.44920385	     29.89609446	     -6.80933519	     -3.74380123	    -55.24485839	     -8.21507217	     -7.16229216	     21.45987201	      8.69320833	      3.74315921	      3.72261613
      7.06000000	     -8.45126434	     -3.74662177	      2.30422270	     -1.34524857	      0.00229104	     -0.25003309	      6.29528446	      8.67715059	      4.61673493	     -7.42654918	      2.09026495	     -0.52403197	     14.52674656	     30.25257699	     -6.65807397	     -3.90905534	    -54.27568019	     -7.82181714	     -7.11127325	     21.34281882	      8.57885908	      3.67556994	      4.10047395
